<svg width="59" height="15" viewBox="0 0 59 15" fill="none" xmlns="http://www.w3.org/2000/svg">
<path d="M0.660511 12H2.76989V9.01278H3.85227L5.44602 12H7.74716L5.93608 8.67614C6.89489 8.24148 7.44886 7.38494 7.44886 6.17898C7.44886 4.38494 6.22585 3.27273 4.26562 3.27273H0.660511V12ZM2.76989 7.35085V4.97301H3.80966C4.75568 4.97301 5.26278 5.36932 5.26278 6.17898C5.26278 6.98864 4.75568 7.35085 3.80966 7.35085H2.76989ZM12.6032 5.8892H14.623C14.606 4.2571 13.3063 3.15341 11.2779 3.15341C9.28355 3.15341 7.84747 4.24006 7.86026 5.86364C7.85599 7.18892 8.78497 7.93466 10.2935 8.27983L11.2054 8.4929C12.1642 8.71449 12.5946 8.97443 12.6032 9.46449C12.5946 9.99716 12.0961 10.3679 11.248 10.3679C10.3148 10.3679 9.70116 9.93324 9.65429 9.09375H7.6344C7.65997 11.1349 9.07901 12.1108 11.2736 12.1108C13.4469 12.1108 14.7338 11.1264 14.7424 9.46875C14.7338 8.07528 13.7921 7.22301 12.0705 6.84375L11.3205 6.6733C10.5279 6.50284 10.025 6.23864 10.0421 5.71875C10.0463 5.24148 10.4554 4.89631 11.2736 4.89631C12.0961 4.89631 12.5478 5.26705 12.6032 5.8892ZM19.805 5.8892H21.8249C21.8079 4.2571 20.5082 3.15341 18.4797 3.15341C16.4854 3.15341 15.0493 4.24006 15.0621 5.86364C15.0579 7.18892 15.9868 7.93466 17.4954 8.27983L18.4073 8.4929C19.3661 8.71449 19.7965 8.97443 19.805 9.46449C19.7965 9.99716 19.2979 10.3679 18.4499 10.3679C17.5167 10.3679 16.903 9.93324 16.8562 9.09375H14.8363C14.8618 11.1349 16.2809 12.1108 18.4755 12.1108C20.6488 12.1108 21.9357 11.1264 21.9442 9.46875C21.9357 8.07528 20.9939 7.22301 19.2724 6.84375L18.5224 6.6733C17.7297 6.50284 17.2269 6.23864 17.2439 5.71875C17.2482 5.24148 17.6573 4.89631 18.4755 4.89631C19.2979 4.89631 19.7496 5.26705 19.805 5.8892ZM22.6859 12H23.7427V8.59091H25.6518C25.7285 8.59091 25.8009 8.59091 25.8734 8.58665L27.7143 12H28.9416L26.9686 8.39489C28.0808 8.01562 28.6007 7.10795 28.6007 5.94886C28.6007 4.40625 27.6802 3.27273 25.6347 3.27273H22.6859V12ZM23.7427 7.63636V4.21023H25.6007C27.0154 4.21023 27.5609 4.90057 27.5609 5.94886C27.5609 6.99716 27.0154 7.63636 25.6177 7.63636H23.7427ZM32.1793 12.1364C33.5088 12.1364 34.4804 11.4716 34.7873 10.483L33.8157 10.2102C33.56 10.892 32.9677 11.233 32.1793 11.233C30.9989 11.233 30.185 10.4702 30.1381 9.06818H34.8895V8.64205C34.8895 6.20455 33.4407 5.36932 32.077 5.36932C30.3043 5.36932 29.1282 6.76705 29.1282 8.77841C29.1282 10.7898 30.2873 12.1364 32.1793 12.1364ZM30.1381 8.19886C30.2063 7.1804 30.9265 6.27273 32.077 6.27273C33.1679 6.27273 33.8668 7.09091 33.8668 8.19886H30.1381ZM37.6255 12.1534C38.7675 12.1534 39.3641 11.5398 39.5687 11.1136H39.6198V12H40.6255V7.6875C40.6255 5.60795 39.0403 5.36932 38.205 5.36932C37.2164 5.36932 36.0914 5.71023 35.58 6.90341L36.5346 7.24432C36.7562 6.76705 37.2803 6.25568 38.2391 6.25568C39.1639 6.25568 39.6198 6.74574 39.6198 7.58523V7.61932C39.6198 8.10511 39.1255 8.0625 37.9323 8.21591C36.7178 8.37358 35.3925 8.64205 35.3925 10.142C35.3925 11.4205 36.3812 12.1534 37.6255 12.1534ZM37.7789 11.25C36.9778 11.25 36.3982 10.892 36.3982 10.1932C36.3982 9.42614 37.0971 9.1875 37.8812 9.08523C38.3073 9.03409 39.4494 8.91477 39.6198 8.71023V9.63068C39.6198 10.4489 38.9721 11.25 37.7789 11.25ZM44.2127 12.1364C45.474 12.1364 45.9002 11.3523 46.1218 10.9943H46.2411V12H47.2127V3.27273H46.207V6.49432H46.1218C45.9002 6.15341 45.5081 5.36932 44.2297 5.36932C42.5763 5.36932 41.4343 6.68182 41.4343 8.74432C41.4343 10.8239 42.5763 12.1364 44.2127 12.1364ZM44.349 11.233C43.0877 11.233 42.4399 10.125 42.4399 8.72727C42.4399 7.34659 43.0706 6.27273 44.349 6.27273C45.5763 6.27273 46.224 7.26136 46.224 8.72727C46.224 10.2102 45.5593 11.233 44.349 11.233ZM51.2185 12.1364C52.5481 12.1364 53.5197 11.4716 53.8265 10.483L52.8549 10.2102C52.5992 10.892 52.0069 11.233 51.2185 11.233C50.0381 11.233 49.2242 10.4702 49.1773 9.06818H53.9287V8.64205C53.9287 6.20455 52.4799 5.36932 51.1162 5.36932C49.3435 5.36932 48.1674 6.76705 48.1674 8.77841C48.1674 10.7898 49.3265 12.1364 51.2185 12.1364ZM49.1773 8.19886C49.2455 7.1804 49.9657 6.27273 51.1162 6.27273C52.2072 6.27273 52.906 7.09091 52.906 8.19886H49.1773ZM54.7386 12H55.7443V7.85795C55.7443 6.97159 56.4431 6.32386 57.3977 6.32386C57.6661 6.32386 57.9431 6.375 58.0113 6.39205V5.36932C57.8962 5.3608 57.632 5.35227 57.4829 5.35227C56.6988 5.35227 56.017 5.79545 55.7784 6.44318H55.7102V5.45455H54.7386V12Z" fill="black"/>
<path d="M22.6 13.5H39.1H55.6" stroke="black"/>
</svg>
